<?xml version="1.0" encoding="utf-8"?>
<!-- Generator: Adobe Illustrator 24.1.1, SVG Export Plug-In . SVG Version: 6.00 Build 0)  -->
<svg version="1.1" id="Layer_1" xmlns="http://www.w3.org/2000/svg" xmlns:xlink="http://www.w3.org/1999/xlink" x="0px" y="0px"
	 viewBox="0 0 350 98" style="enable-background:new 0 0 350 98;" xml:space="preserve">
<style type="text/css">
	.st0{fill:#FFFFFF;}
</style>
<path class="st0" d="M28,21c-5.4,0-10.4,1.5-14.6,4.2C12.3,22.7,9.9,21,7,21c-3.9,0-7,3.1-7,7v63c0,3.9,3.1,7,7,7s7-3.1,7-7V73.2
	c4.1,2.4,8.9,3.8,14,3.8c15.4,0,28-12.6,28-28S43.4,21,28,21z M28,63c-7.7,0-14-6.3-14-14s6.3-14,14-14s14,6.3,14,14S35.7,63,28,63z
	 M119,28v42c0,3.9-3.1,7-7,7c-2.9,0-5.3-1.7-6.4-4.2C101.4,75.5,96.4,77,91,77c-15.4,0-28-12.6-28-28V28c0-3.9,3.1-7,7-7s7,3.1,7,7
	v21c0,7.7,6.3,14,14,14s14-6.3,14-14V28c0-3.9,3.1-7,7-7S119,24.1,119,28z M182,49v21c0,3.9-3.1,7-7,7s-7-3.1-7-7V49
	c0-7.7-6.3-14-14-14s-14,6.3-14,14v21c0,3.9-3.1,7-7,7s-7-3.1-7-7V28c0-3.9,3.1-7,7-7c2.9,0,5.3,1.7,6.4,4.2
	c4.3-2.6,9.3-4.2,14.6-4.2C169.4,21,182,33.6,182,49z M287,28c0,3.9-3.1,7-7,7h-63c-3.9,0-7-3.1-7-7s3.1-7,7-7h63
	C283.9,21,287,24.1,287,28z M230.1,56H217c-3.9,0-7-3.1-7-7s3.1-7,7-7h13.1c3.9,0,7,3.1,7,7S234,56,230.1,56z M287,59.5
	c0,12.8-10.5,17.5-17.5,17.5H238c-3.9,0-7-3.1-7-7s3.1-7,7-7h31.5c3.5-0.1,3.5-2.3,3.5-3.5s0-3.4-3.6-3.5L259,56h-10.5
	c-3.9,0-7-3.1-7-7s3.1-7,7-7h21C276.5,42,287,46.7,287,59.5z M350,49v21c0,3.9-3.1,7-7,7s-7-3.1-7-7V49c0-7.7-6.3-14-14-14
	s-14,6.3-14,14v21c0,3.9-3.1,7-7,7s-7-3.1-7-7V7c0-3.9,3.1-7,7-7s7,3.1,7,7v17.8c4.1-2.4,8.9-3.8,14-3.8C337.4,21,350,33.6,350,49z
	 M203,28v42c0,3.9-3.1,7-7,7s-7-3.1-7-7V28c0-3.9,3.1-7,7-7S203,24.1,203,28z M222,65.1c1.3,1.3,2,3.1,2,4.9c0,1.9-0.7,3.6-2,4.9
	c-1.3,1.3-3.1,2.1-5,2.1c-1.9,0-3.6-0.7-5-2.1c-1.3-1.3-2-3.1-2-4.9c0-1.9,0.7-3.6,2-4.9C214.7,62.4,219.3,62.4,222,65.1z
	 M200.9,2.1c1.3,1.3,2.1,3.1,2.1,4.9c0,0.5,0,0.9-0.1,1.4c-0.1,0.5-0.2,0.9-0.4,1.3c-0.2,0.4-0.4,0.8-0.7,1.2
	c-0.2,0.4-0.5,0.7-0.9,1c-0.3,0.4-0.7,0.6-1,0.9c-0.4,0.2-0.8,0.5-1.2,0.7c-0.5,0.2-0.9,0.3-1.3,0.4c-0.5,0.1-0.9,0.1-1.4,0.1
	c-0.5,0-0.9,0-1.4-0.1c-0.5-0.1-0.9-0.2-1.3-0.4c-0.4-0.2-0.8-0.4-1.2-0.7c-0.4-0.2-0.7-0.5-1-0.9c-0.4-0.3-0.6-0.7-0.9-1
	s-0.5-0.8-0.7-1.2c-0.2-0.4-0.3-0.9-0.4-1.3C189,7.9,189,7.5,189,7c0-1.9,0.7-3.6,2.1-4.9c1.6-1.6,4-2.4,6.3-1.9
	c0.5,0.1,0.9,0.2,1.3,0.4c0.4,0.2,0.8,0.4,1.2,0.7C200.3,1.4,200.6,1.7,200.9,2.1z"/>
</svg>
